<svg width="89" height="16" viewBox="0 0 89 16" fill="none" xmlns="http://www.w3.org/2000/svg">
<path d="M41.8209 0.0727118H34.3054L31.582 15.1038H36.1843L36.9865 10.2061H41.3987C46.5498 10.2061 46.782 5.30827 46.782 5.30827C47.2887 -0.0117324 41.8209 0.0727118 41.8209 0.0727118ZM42.4543 4.90716C42.3909 6.63827 40.0476 6.61716 40.0476 6.61716H37.5776L38.1054 3.59827H40.8076C42.5387 3.61938 42.4543 4.90716 42.4543 4.90716Z" fill="#9CE800"/>
<path d="M9.85889 3.53498C9.85889 3.53498 7.47333 3.47165 6.27 4.86498L7.15667 0.0727539H2.63889L0 14.8505H4.43333L4.60222 13.5417C4.60222 13.5417 5.97444 15.2094 8.02222 15.0828C8.02222 15.0828 13.68 15.1672 13.7011 8.01054C13.68 8.03165 13.9544 3.51387 9.85889 3.53498ZM9.22556 9.27721C9.12 10.945 8.00111 11.8105 6.94556 11.8105C5.89 11.8105 5.17222 10.8817 5.36222 9.40387C5.55222 7.79943 6.60778 6.65943 7.79 6.74387C9.62667 6.84943 9.22556 9.27721 9.22556 9.27721Z" fill="#F2F2F3"/>
<path d="M24.7855 7.16609C24.7855 10.3328 20.2255 10.7761 17.5021 10.755C17.5274 10.9071 17.5699 11.0558 17.6288 11.1983C17.9243 11.7683 18.6632 11.9583 19.2543 11.9794C20.0401 11.9957 20.8216 11.8595 21.5555 11.5783C21.9338 11.4239 22.2891 11.2178 22.611 10.9661L23.8988 13.0983C23.941 13.1616 23.0121 13.7739 22.9699 13.8161C22.2295 14.2803 21.4157 14.6158 20.5632 14.8083C18.9166 15.1883 16.9532 15.2728 15.3699 14.5761C14.8394 14.3401 14.3687 13.9881 13.9924 13.546C13.616 13.1039 13.3437 12.583 13.1955 12.0216C13.0178 11.3538 12.9326 10.6648 12.9421 9.97387C12.9421 6.8072 15.1799 3.74609 19.9299 3.74609C22.8432 3.7672 24.7855 4.86498 24.7855 7.16609ZM19.6766 6.32165C18.2832 6.32165 17.3755 7.39832 17.291 8.89721C18.7899 8.83387 20.7743 8.28498 20.7743 7.20832C20.7532 6.65943 20.3521 6.32165 19.6766 6.32165Z" fill="#F2F2F3"/>
<path d="M30.8437 0.0727539H27.1704L26.4948 3.78832H24.7848L24.2148 6.74387H25.946L25.2493 11.9372C25.2493 11.9372 24.8482 15.0617 27.9304 15.1039C31.0126 15.1461 32.6171 13.415 32.6171 13.415L31.2237 11.0717C31.2237 11.0717 29.3237 11.7472 29.366 10.5439C29.4082 9.34054 29.8304 6.74387 29.8304 6.74387L32.3426 6.72276L32.8704 3.7461H30.1682L30.8437 0.0727539Z" fill="#F2F2F3"/>
<path d="M63.1022 3.91492H58.5L60.0622 15.1038H64.0311L66.9867 9.50936L67.5567 15.1038H71.5678L77.1622 3.91492H72.3067L70.2378 9.84714L69.5622 3.91492H66.1633L63.4189 10.1005L63.1022 3.91492Z" fill="#9CE800"/>
<path d="M54.6366 3.91495L54.4466 4.9494C53.3835 4.13799 52.0894 3.68685 50.7522 3.66162C48.5989 3.66162 45.3266 5.41384 45.3478 10.4172C45.3478 13.1194 46.4244 15.2938 49.7178 15.125C49.7178 15.125 51.4911 15.1461 52.7366 13.985L52.5255 15.0827H56.7478L58.8589 3.91495H54.6366ZM51.4066 11.705C50.3722 11.7683 49.6333 10.8816 49.5489 9.91051C49.4433 8.5594 50.5411 7.01829 51.9555 6.91273C52.3229 6.87338 52.6942 6.92177 53.0392 7.05388C53.3841 7.18602 53.693 7.3981 53.94 7.67273L53.3489 10.8394C52.8135 11.3326 52.1314 11.6366 51.4066 11.705Z" fill="#9CE800"/>
<path d="M83.957 3.91495L83.767 4.9494C82.7038 4.13799 81.4097 3.68685 80.0725 3.66162C77.9192 3.66162 74.647 5.41384 74.6681 10.4172C74.6681 13.1194 75.7447 15.2938 79.0381 15.125C79.0381 15.125 80.8114 15.1461 82.057 13.985L81.8458 15.0827H86.0681L88.1792 3.91495H83.957ZM80.727 11.705C79.6925 11.7683 78.9536 10.8816 78.8692 9.91051C78.7636 8.5594 79.8614 7.01829 81.2758 6.91273C81.6432 6.87338 82.0145 6.92177 82.3595 7.05388C82.7044 7.18602 83.0133 7.3981 83.2603 7.67273L82.6692 10.8394C82.1319 11.3295 81.4506 11.633 80.727 11.705Z" fill="#9CE800"/>
</svg>
