<svg width="7" height="12" viewBox="0 0 7 12" fill="none" xmlns="http://www.w3.org/2000/svg">
<path d="M1.06046 5.54186L1.06046 5.54186L1.05984 5.54249C0.96001 5.64433 0.90284 5.78044 0.900019 5.92302L0.999987 5.925L0.9 5.92492C0.899879 6.07146 0.957266 6.21219 1.05982 6.31686L1.06056 6.31761L5.70431 10.9582L5.70415 10.9584L5.70925 10.9628C5.81548 11.0556 5.95295 11.1045 6.09387 11.0997C6.23479 11.0949 6.36863 11.0368 6.46833 10.9371C6.56803 10.8374 6.62615 10.7035 6.63093 10.5626C6.63571 10.4217 6.5868 10.2842 6.49409 10.178L6.49427 10.1778L6.48943 10.173L2.23832 5.92497L6.2903 1.87299C6.3465 1.82331 6.39208 1.76276 6.42429 1.69498C6.457 1.62614 6.47522 1.5513 6.4778 1.47512C6.48039 1.39894 6.46729 1.32304 6.43932 1.25213C6.41135 1.18122 6.3691 1.11682 6.3152 1.06292C6.2613 1.00902 6.1969 0.966776 6.12599 0.938805C6.05509 0.910834 5.97919 0.897734 5.90301 0.90032C5.82682 0.902906 5.75199 0.921121 5.68314 0.953836C5.61535 0.986049 5.55479 1.03164 5.5051 1.08786L1.06046 5.54186Z" fill="#F4F5F0" stroke="#F4F5F0" stroke-width="0.2"/>
</svg>
