<svg width="69" height="49" viewBox="0 0 69 49" fill="none" xmlns="http://www.w3.org/2000/svg">
<path d="M25.4877 6.11758L43.0334 6L43.4258 9.4673L25.168 9.168L25.4877 6.11758ZM43.1604 13.7957L43.5087 17.2713H25.3686L25.1773 13.8014L43.1604 13.7957ZM25.168 24.9999L25.481 21.9181L43.2934 21.6516L43.6289 24.9993L25.168 24.9999Z" fill="#AAAEB0"/>
<path d="M20.7008 33.9688H21.7965L24.5914 40.9238L27.3805 33.9688H28.482L25.0133 42.5H24.1578L20.7008 33.9688ZM20.3434 33.9688H21.3102L21.4684 39.1719V42.5H20.3434V33.9688ZM27.8668 33.9688H28.8336V42.5H27.7086V39.1719L27.8668 33.9688ZM33.2867 42.6172C32.8453 42.6172 32.4449 42.543 32.0855 42.3945C31.7301 42.2422 31.4234 42.0293 31.1656 41.7559C30.9117 41.4824 30.7164 41.1582 30.5797 40.7832C30.443 40.4082 30.3746 39.998 30.3746 39.5527V39.3066C30.3746 38.791 30.4508 38.332 30.6031 37.9297C30.7555 37.5234 30.9625 37.1797 31.2242 36.8984C31.4859 36.6172 31.7828 36.4043 32.1148 36.2598C32.4469 36.1152 32.7906 36.043 33.1461 36.043C33.5992 36.043 33.9898 36.1211 34.318 36.2773C34.65 36.4336 34.9215 36.6523 35.1324 36.9336C35.3434 37.2109 35.4996 37.5391 35.6012 37.918C35.7027 38.293 35.7535 38.7031 35.7535 39.1484V39.6348H31.0191V38.75H34.6695V38.668C34.6539 38.3867 34.5953 38.1133 34.4938 37.8477C34.3961 37.582 34.2398 37.3633 34.025 37.1914C33.8102 37.0195 33.5172 36.9336 33.1461 36.9336C32.9 36.9336 32.6734 36.9863 32.4664 37.0918C32.2594 37.1934 32.0816 37.3457 31.9332 37.5488C31.7848 37.752 31.6695 38 31.5875 38.293C31.5055 38.5859 31.4645 38.9238 31.4645 39.3066V39.5527C31.4645 39.8535 31.5055 40.1367 31.5875 40.4023C31.6734 40.6641 31.7965 40.8945 31.9566 41.0938C32.1207 41.293 32.318 41.4492 32.5484 41.5625C32.7828 41.6758 33.0484 41.7324 33.3453 41.7324C33.7281 41.7324 34.0523 41.6543 34.318 41.498C34.5836 41.3418 34.816 41.1328 35.0152 40.8711L35.6715 41.3926C35.5348 41.5996 35.3609 41.7969 35.15 41.9844C34.9391 42.1719 34.6793 42.3242 34.3707 42.4414C34.066 42.5586 33.7047 42.6172 33.2867 42.6172ZM38.1031 37.5137V42.5H37.0191V36.1602H38.0445L38.1031 37.5137ZM37.8453 39.0898L37.3941 39.0723C37.398 38.6387 37.4625 38.2383 37.5875 37.8711C37.7125 37.5 37.8883 37.1777 38.1148 36.9043C38.3414 36.6309 38.6109 36.4199 38.9234 36.2715C39.2398 36.1191 39.5895 36.043 39.9723 36.043C40.2848 36.043 40.566 36.0859 40.816 36.1719C41.066 36.2539 41.2789 36.3867 41.4547 36.5703C41.6344 36.7539 41.7711 36.9922 41.8648 37.2852C41.9586 37.5742 42.0055 37.9277 42.0055 38.3457V42.5H40.9156V38.334C40.9156 38.002 40.8668 37.7363 40.7691 37.5371C40.6715 37.334 40.5289 37.1875 40.3414 37.0977C40.1539 37.0039 39.9234 36.957 39.65 36.957C39.3805 36.957 39.1344 37.0137 38.9117 37.127C38.693 37.2402 38.5035 37.3965 38.3434 37.5957C38.1871 37.7949 38.0641 38.0234 37.9742 38.2812C37.8883 38.5352 37.8453 38.8047 37.8453 39.0898ZM47.5309 41.0352V36.1602H48.6207V42.5H47.5836L47.5309 41.0352ZM47.7359 39.6992L48.1871 39.6875C48.1871 40.1094 48.1422 40.5 48.0523 40.8594C47.9664 41.2148 47.8258 41.5234 47.6305 41.7852C47.4352 42.0469 47.1793 42.252 46.8629 42.4004C46.5465 42.5449 46.1617 42.6172 45.7086 42.6172C45.4 42.6172 45.1168 42.5723 44.859 42.4824C44.6051 42.3926 44.3863 42.2539 44.2027 42.0664C44.0191 41.8789 43.8766 41.6348 43.775 41.334C43.6773 41.0332 43.6285 40.6719 43.6285 40.25V36.1602H44.7125V40.2617C44.7125 40.5469 44.7438 40.7832 44.8063 40.9707C44.8727 41.1543 44.9605 41.3008 45.0699 41.4102C45.1832 41.5156 45.3082 41.5898 45.4449 41.6328C45.5855 41.6758 45.7301 41.6973 45.8785 41.6973C46.3395 41.6973 46.7047 41.6094 46.9742 41.4336C47.2438 41.2539 47.4371 41.0137 47.5543 40.7129C47.6754 40.4082 47.7359 40.0703 47.7359 39.6992Z" fill="#8E9398"/>
</svg>
