<svg width="24" height="24" viewBox="0 0 24 24" fill="none" xmlns="http://www.w3.org/2000/svg">
<path d="M16.1155 9.1888L11.9612 6.81218L11.3305 1.99902H11.9612C13.7932 1.99975 15.5899 2.50201 17.1556 3.45107C18.7213 4.40013 19.9958 5.75959 20.8404 7.38137L16.1155 9.1888Z" fill="#AAAEB0"/>
<path d="M15.1435 10.7535L14.3426 14.7678L10.0182 15.4768L8.02609 11.7521L11.6799 8.51671L15.1435 10.7535Z" fill="#AAAEB0"/>
<path d="M15.8721 15.579L16.9332 10.5861L21.7782 9.89708C21.9228 10.5902 21.9966 11.2961 21.9984 12.0041C22.0219 13.2878 21.7858 14.5631 21.3042 15.7538C20.8226 16.9445 20.1054 18.0261 19.1955 18.9342L15.8721 15.579Z" fill="#AAAEB0"/>
<path d="M14.5712 16.545L9.4659 17.2739L7.02337 20.6791C8.73713 21.6574 10.7027 22.1083 12.6727 21.975C14.6427 21.8418 16.5292 21.1303 18.0949 19.9302L14.5712 16.545Z" fill="#AAAEB0"/>
<path d="M6.72523 10.7522L10.4991 7.11733L9.37799 2.34412C7.522 2.84698 5.85051 3.87252 4.56345 5.2981C3.27639 6.72367 2.42825 8.48891 2.12046 10.3827L6.72523 10.7522Z" fill="#AAAEB0"/>
<path d="M6.35452 12.2541L8.02625 15.859L6.00415 19.9032C4.80582 19.0081 3.82402 17.8562 3.13104 16.5324C2.43807 15.2086 2.05157 13.7466 2 12.2541H6.35452Z" fill="#AAAEB0"/>
</svg>
