<svg width="16" height="16" viewBox="0 0 16 16" fill="none" xmlns="http://www.w3.org/2000/svg">
<rect width="16" height="16" fill="white"/>
<path d="M8 1C6.61553 1 5.26216 1.41054 4.11101 2.17971C2.95987 2.94888 2.06265 4.04213 1.53284 5.32121C1.00303 6.60029 0.864412 8.00776 1.13451 9.36563C1.4046 10.7235 2.07129 11.9708 3.05026 12.9497C4.02923 13.9287 5.27651 14.5954 6.63437 14.8655C7.99224 15.1356 9.3997 14.997 10.6788 14.4672C11.9579 13.9373 13.0511 13.0401 13.8203 11.889C14.5895 10.7378 15 9.38447 15 8C15 6.14348 14.2625 4.36301 12.9498 3.05025C11.637 1.7375 9.85652 1 8 1ZM7.77601 2.568C8.01551 2.56662 8.25004 2.63629 8.44995 2.76821C8.64987 2.90012 8.80618 3.08835 8.89911 3.3091C8.99204 3.52985 9.01743 3.77319 8.97206 4.00837C8.92669 4.24354 8.8126 4.45998 8.64422 4.63032C8.47585 4.80066 8.26074 4.91724 8.02611 4.96532C7.79147 5.01341 7.54784 4.99083 7.32603 4.90046C7.10422 4.81008 6.91421 4.65597 6.77999 4.4576C6.64577 4.25922 6.57339 4.0255 6.57201 3.786C6.57384 3.46724 6.70128 3.16207 6.92667 2.93667C7.15207 2.71128 7.45725 2.58383 7.77601 2.582V2.568ZM10.303 13.432L5.732 13.292L5.655 11.458H6.99901L7.258 7.87399L5.655 8.28L5.732 6.02599L6.908 5.921L8.959 5.739L9.456 11.458H10.751L10.303 13.432Z" fill="#252A2D"/>
</svg>
