<svg width="69" height="49" viewBox="0 0 69 49" fill="none" xmlns="http://www.w3.org/2000/svg">
<path d="M39.0861 14.1575L38.0781 18.9002L41.235 22.0873C42.0994 21.2247 42.7806 20.1973 43.238 19.0663C43.6955 17.9352 43.9197 16.7239 43.8975 15.5045C43.8957 14.832 43.8256 14.1614 43.6883 13.5031L39.0861 14.1575Z" fill="#AAAEB0"/>
<path d="M36.6211 18.1318L37.3818 14.3187L34.0918 12.194L30.6211 15.2672L32.5133 18.8053L36.6211 18.1318Z" fill="#AAAEB0"/>
<path d="M36.8415 19.8203L31.992 20.5127L29.6719 23.7473C31.2998 24.6765 33.1668 25.1048 35.0381 24.9783C36.9094 24.8517 38.7013 24.1759 40.1885 23.0359L36.8415 19.8203Z" fill="#AAAEB0"/>
<path d="M34.3608 10.5719L38.3069 12.8295L42.795 11.1126C41.9928 9.57212 40.7821 8.28078 39.2949 7.37928C37.8077 6.47778 36.101 6.00069 34.3608 6H33.7617L34.3608 10.5719Z" fill="#AAAEB0"/>
<path d="M29.3857 14.3187L32.9705 10.866L31.9055 6.33203C30.1426 6.80969 28.5549 7.78385 27.3323 9.13798C26.1097 10.4921 25.3041 12.1689 25.0117 13.9678L29.3857 14.3187Z" fill="#AAAEB0"/>
<path d="M30.6227 19.1657L29.0347 15.7415H24.8984C24.9474 17.1592 25.3146 18.5479 25.9728 19.8053C26.631 21.0628 27.5636 22.157 28.7019 23.0073L30.6227 19.1657Z" fill="#AAAEB0"/>
<path d="M22.3414 40.3438C22.3414 40.1445 22.3102 39.9688 22.2477 39.8164C22.1891 39.6602 22.0836 39.5195 21.9313 39.3945C21.7828 39.2695 21.5758 39.1504 21.3102 39.0371C21.0484 38.9238 20.7164 38.8086 20.3141 38.6914C19.8922 38.5664 19.5113 38.4277 19.1715 38.2754C18.8316 38.1191 18.5406 37.9414 18.2984 37.7422C18.0563 37.543 17.8707 37.3145 17.7418 37.0566C17.6129 36.7988 17.5484 36.5039 17.5484 36.1719C17.5484 35.8398 17.6168 35.5332 17.7535 35.252C17.8902 34.9707 18.0855 34.7266 18.3395 34.5195C18.5973 34.3086 18.9039 34.1445 19.2594 34.0273C19.6148 33.9102 20.0113 33.8516 20.4488 33.8516C21.0895 33.8516 21.6324 33.9746 22.0777 34.2207C22.527 34.4629 22.8688 34.7812 23.1031 35.1758C23.3375 35.5664 23.4547 35.9844 23.4547 36.4297H22.3297C22.3297 36.1094 22.2613 35.8262 22.1246 35.5801C21.9879 35.3301 21.7809 35.1348 21.5035 34.9941C21.2262 34.8496 20.8746 34.7773 20.4488 34.7773C20.0465 34.7773 19.7145 34.8379 19.4527 34.959C19.191 35.0801 18.9957 35.2441 18.8668 35.4512C18.7418 35.6582 18.6793 35.8945 18.6793 36.1602C18.6793 36.3398 18.7164 36.5039 18.7906 36.6523C18.8688 36.7969 18.9879 36.9316 19.148 37.0566C19.3121 37.1816 19.5191 37.2969 19.7691 37.4023C20.023 37.5078 20.3258 37.6094 20.6773 37.707C21.1617 37.8438 21.5797 37.9961 21.9313 38.1641C22.2828 38.332 22.5719 38.5215 22.7984 38.7324C23.0289 38.9395 23.1988 39.1758 23.3082 39.4414C23.4215 39.7031 23.4781 40 23.4781 40.332C23.4781 40.6797 23.4078 40.9941 23.2672 41.2754C23.1266 41.5566 22.9254 41.7969 22.6637 41.9961C22.402 42.1953 22.0875 42.3496 21.7203 42.459C21.357 42.5645 20.9508 42.6172 20.5016 42.6172C20.107 42.6172 19.7184 42.5625 19.3355 42.4531C18.9566 42.3438 18.6109 42.1797 18.2984 41.9609C17.9898 41.7422 17.7418 41.4727 17.5543 41.1523C17.3707 40.8281 17.2789 40.4531 17.2789 40.0273H18.4039C18.4039 40.3203 18.4605 40.5723 18.5738 40.7832C18.6871 40.9902 18.8414 41.1621 19.0367 41.2988C19.2359 41.4355 19.4605 41.5371 19.7105 41.6035C19.9645 41.666 20.2281 41.6973 20.5016 41.6973C20.8961 41.6973 21.2301 41.6426 21.5035 41.5332C21.777 41.4238 21.984 41.2676 22.1246 41.0645C22.2691 40.8613 22.3414 40.6211 22.3414 40.3438ZM25.8395 37.3789V44.9375H24.7496V36.1602H25.7457L25.8395 37.3789ZM30.1109 39.2773V39.4004C30.1109 39.8613 30.0563 40.2891 29.9469 40.6836C29.8375 41.0742 29.6773 41.4141 29.4664 41.7031C29.2594 41.9922 29.0035 42.2168 28.6988 42.377C28.3941 42.5371 28.0445 42.6172 27.65 42.6172C27.2477 42.6172 26.8922 42.5508 26.5836 42.418C26.275 42.2852 26.0133 42.0918 25.7984 41.8379C25.5836 41.584 25.4117 41.2793 25.2828 40.9238C25.1578 40.5684 25.0719 40.168 25.025 39.7227V39.0664C25.0719 38.5977 25.1598 38.1777 25.2887 37.8066C25.4176 37.4355 25.5875 37.1191 25.7984 36.8574C26.0133 36.5918 26.273 36.3906 26.5777 36.2539C26.8824 36.1133 27.234 36.043 27.6324 36.043C28.0309 36.043 28.3844 36.1211 28.693 36.2773C29.0016 36.4297 29.2613 36.6484 29.4723 36.9336C29.6832 37.2188 29.8414 37.5605 29.9469 37.959C30.0563 38.3535 30.1109 38.793 30.1109 39.2773ZM29.0211 39.4004V39.2773C29.0211 38.9609 28.9879 38.6641 28.9215 38.3867C28.8551 38.1055 28.7516 37.8594 28.6109 37.6484C28.4742 37.4336 28.2984 37.2656 28.0836 37.1445C27.8688 37.0195 27.6129 36.957 27.316 36.957C27.0426 36.957 26.8043 37.0039 26.6012 37.0977C26.402 37.1914 26.232 37.3184 26.0914 37.4785C25.9508 37.6348 25.8355 37.8145 25.7457 38.0176C25.6598 38.2168 25.5953 38.4238 25.5523 38.6387V40.1562C25.6305 40.4297 25.7398 40.6875 25.8805 40.9297C26.0211 41.168 26.2086 41.3613 26.443 41.5098C26.6773 41.6543 26.9723 41.7266 27.3277 41.7266C27.6207 41.7266 27.8727 41.666 28.0836 41.5449C28.2984 41.4199 28.4742 41.25 28.6109 41.0352C28.7516 40.8203 28.8551 40.5742 28.9215 40.2969C28.9879 40.0156 29.0211 39.7168 29.0211 39.4004ZM31.2066 39.4004V39.2656C31.2066 38.8086 31.273 38.3848 31.4059 37.9941C31.5387 37.5996 31.7301 37.2578 31.9801 36.9688C32.2301 36.6758 32.5328 36.4492 32.8883 36.2891C33.2438 36.125 33.6422 36.043 34.0836 36.043C34.5289 36.043 34.9293 36.125 35.2848 36.2891C35.6441 36.4492 35.9488 36.6758 36.1988 36.9688C36.4527 37.2578 36.6461 37.5996 36.7789 37.9941C36.9117 38.3848 36.9781 38.8086 36.9781 39.2656V39.4004C36.9781 39.8574 36.9117 40.2812 36.7789 40.6719C36.6461 41.0625 36.4527 41.4043 36.1988 41.6973C35.9488 41.9863 35.6461 42.2129 35.2906 42.377C34.9391 42.5371 34.5406 42.6172 34.0953 42.6172C33.65 42.6172 33.2496 42.5371 32.8941 42.377C32.5387 42.2129 32.234 41.9863 31.9801 41.6973C31.7301 41.4043 31.5387 41.0625 31.4059 40.6719C31.273 40.2812 31.2066 39.8574 31.2066 39.4004ZM32.2906 39.2656V39.4004C32.2906 39.7168 32.3277 40.0156 32.402 40.2969C32.4762 40.5742 32.5875 40.8203 32.7359 41.0352C32.8883 41.25 33.0777 41.4199 33.3043 41.5449C33.5309 41.666 33.7945 41.7266 34.0953 41.7266C34.3922 41.7266 34.652 41.666 34.8746 41.5449C35.1012 41.4199 35.2887 41.25 35.4371 41.0352C35.5855 40.8203 35.6969 40.5742 35.7711 40.2969C35.8492 40.0156 35.8883 39.7168 35.8883 39.4004V39.2656C35.8883 38.9531 35.8492 38.6582 35.7711 38.3809C35.6969 38.0996 35.5836 37.8516 35.4313 37.6367C35.2828 37.418 35.0953 37.2461 34.8688 37.1211C34.6461 36.9961 34.3844 36.9336 34.0836 36.9336C33.7867 36.9336 33.525 36.9961 33.2984 37.1211C33.0758 37.2461 32.8883 37.418 32.7359 37.6367C32.5875 37.8516 32.4762 38.0996 32.402 38.3809C32.3277 38.6582 32.2906 38.9531 32.2906 39.2656ZM39.4215 37.1562V42.5H38.3375V36.1602H39.3922L39.4215 37.1562ZM41.402 36.125L41.3961 37.1328C41.3063 37.1133 41.2203 37.1016 41.1383 37.0977C41.0602 37.0898 40.9703 37.0859 40.8688 37.0859C40.6188 37.0859 40.398 37.125 40.2066 37.2031C40.0152 37.2812 39.8531 37.3906 39.7203 37.5312C39.5875 37.6719 39.482 37.8398 39.4039 38.0352C39.3297 38.2266 39.2809 38.4375 39.2574 38.668L38.9527 38.8438C38.9527 38.4609 38.9898 38.1016 39.0641 37.7656C39.1422 37.4297 39.2613 37.1328 39.4215 36.875C39.5816 36.6133 39.7848 36.4102 40.0309 36.2656C40.2809 36.1172 40.5777 36.043 40.9215 36.043C40.9996 36.043 41.0895 36.0527 41.191 36.0723C41.2926 36.0879 41.3629 36.1055 41.402 36.125ZM45.3512 36.1602V36.9922H41.9234V36.1602H45.3512ZM43.0836 34.6191H44.1676V40.9297C44.1676 41.1445 44.2008 41.3066 44.2672 41.416C44.3336 41.5254 44.4195 41.5977 44.525 41.6328C44.6305 41.668 44.7438 41.6855 44.8648 41.6855C44.9547 41.6855 45.0484 41.6777 45.1461 41.6621C45.2477 41.6426 45.3238 41.627 45.3746 41.6152L45.3805 42.5C45.2945 42.5273 45.1813 42.5527 45.0406 42.5762C44.9039 42.6035 44.7379 42.6172 44.5426 42.6172C44.277 42.6172 44.0328 42.5645 43.8102 42.459C43.5875 42.3535 43.4098 42.1777 43.277 41.9316C43.148 41.6816 43.0836 41.3457 43.0836 40.9238V34.6191ZM50.3141 40.8184C50.3141 40.6621 50.2789 40.5176 50.2086 40.3848C50.1422 40.248 50.0035 40.125 49.7926 40.0156C49.5855 39.9023 49.273 39.8047 48.8551 39.7227C48.5035 39.6484 48.1852 39.5605 47.9 39.459C47.6188 39.3574 47.3785 39.2344 47.1793 39.0898C46.984 38.9453 46.8336 38.7754 46.7281 38.5801C46.6227 38.3848 46.5699 38.1562 46.5699 37.8945C46.5699 37.6445 46.6246 37.4082 46.734 37.1855C46.8473 36.9629 47.0055 36.7656 47.2086 36.5938C47.4156 36.4219 47.6637 36.2871 47.9527 36.1895C48.2418 36.0918 48.5641 36.043 48.9195 36.043C49.4273 36.043 49.8609 36.1328 50.2203 36.3125C50.5797 36.4922 50.8551 36.7324 51.0465 37.0332C51.2379 37.3301 51.3336 37.6602 51.3336 38.0234H50.2496C50.2496 37.8477 50.1969 37.6777 50.0914 37.5137C49.9898 37.3457 49.8395 37.207 49.6402 37.0977C49.4449 36.9883 49.2047 36.9336 48.9195 36.9336C48.6188 36.9336 48.3746 36.9805 48.1871 37.0742C48.0035 37.1641 47.8688 37.2793 47.7828 37.4199C47.7008 37.5605 47.6598 37.709 47.6598 37.8652C47.6598 37.9824 47.6793 38.0879 47.7184 38.1816C47.7613 38.2715 47.8355 38.3555 47.941 38.4336C48.0465 38.5078 48.1949 38.5781 48.3863 38.6445C48.5777 38.7109 48.8219 38.7773 49.1188 38.8438C49.6383 38.9609 50.066 39.1016 50.402 39.2656C50.7379 39.4297 50.9879 39.6309 51.152 39.8691C51.316 40.1074 51.398 40.3965 51.398 40.7363C51.398 41.0137 51.3395 41.2676 51.2223 41.498C51.109 41.7285 50.943 41.9277 50.7242 42.0957C50.5094 42.2598 50.2516 42.3887 49.9508 42.4824C49.6539 42.5723 49.3199 42.6172 48.9488 42.6172C48.3902 42.6172 47.9176 42.5176 47.5309 42.3184C47.1441 42.1191 46.8512 41.8613 46.652 41.5449C46.4527 41.2285 46.3531 40.8945 46.3531 40.543H47.443C47.4586 40.8398 47.5445 41.0762 47.7008 41.252C47.857 41.4238 48.0484 41.5469 48.275 41.6211C48.5016 41.6914 48.7262 41.7266 48.9488 41.7266C49.2457 41.7266 49.4938 41.6875 49.693 41.6094C49.8961 41.5312 50.0504 41.4238 50.1559 41.2871C50.2613 41.1504 50.3141 40.9941 50.3141 40.8184Z" fill="#8E9398"/>
</svg>
