<svg width="16" height="16" viewBox="0 0 16 16" fill="none" xmlns="http://www.w3.org/2000/svg">
<path d="M9.26682 10.4456L10.5173 8.93554L15.0937 12.8353L12.7761 15.0937L9.26682 10.4456Z" fill="white"/>
<path fill-rule="evenodd" clip-rule="evenodd" d="M5.75766 2.54756C3.98227 2.54756 2.54303 3.99079 2.54303 5.7711C2.54303 7.55141 3.98227 8.99464 5.75766 8.99464C7.53305 8.99464 8.97229 7.55141 8.97229 5.7711C8.97229 3.99079 7.53305 2.54756 5.75766 2.54756ZM0.90625 5.7711C0.90625 3.08432 3.0783 0.90625 5.75766 0.90625C8.43702 0.90625 10.6091 3.08432 10.6091 5.7711C10.6091 8.45789 8.43702 10.636 5.75766 10.636C3.0783 10.636 0.90625 8.45789 0.90625 5.7711Z" fill="white"/>
</svg>
