<svg width="90" height="17" viewBox="0 0 90 17" fill="none" xmlns="http://www.w3.org/2000/svg">
<rect width="90" height="17" rx="8.5" fill="#831AED"/>
<path d="M14.7109 10.7611L16.0829 9.38912L10.938 4.24414L5.79297 9.38912L7.33646 10.7611L10.938 7.15963L14.7109 10.7611Z" fill="white"/>
<path d="M10.938 8.87462L14.3679 11.9616L13.1674 13.1621L10.938 11.1041L8.87996 13.1621L7.67946 11.9616L10.938 8.87462Z" fill="white"/>
<path d="M25.6611 8.32324H23.3062L23.2935 7.16162H25.3501C25.6971 7.16162 25.9912 7.11084 26.2324 7.00928C26.4779 6.90348 26.6641 6.75326 26.791 6.55859C26.918 6.3597 26.9814 6.12061 26.9814 5.84131C26.9814 5.53239 26.9222 5.2806 26.8037 5.08594C26.6852 4.89128 26.5033 4.74951 26.2578 4.66064C26.0166 4.57178 25.7077 4.52734 25.3311 4.52734H23.7886V12.5H22.1953V3.25781H25.3311C25.8389 3.25781 26.2917 3.30648 26.6895 3.40381C27.0915 3.50114 27.4321 3.65348 27.7114 3.86084C27.995 4.06396 28.2087 4.3221 28.3525 4.63525C28.5007 4.9484 28.5747 5.3208 28.5747 5.75244C28.5747 6.1333 28.4837 6.48242 28.3018 6.7998C28.1198 7.11296 27.8511 7.36898 27.4956 7.56787C27.1401 7.76676 26.6979 7.88525 26.1689 7.92334L25.6611 8.32324ZM25.5913 12.5H22.8047L23.522 11.2368H25.5913C25.951 11.2368 26.2515 11.1776 26.4927 11.0591C26.7339 10.9364 26.9137 10.7692 27.0322 10.5576C27.1549 10.3418 27.2163 10.09 27.2163 9.80225C27.2163 9.50179 27.1634 9.24154 27.0576 9.02148C26.9518 8.7972 26.7847 8.62581 26.5562 8.50732C26.3276 8.3846 26.0293 8.32324 25.6611 8.32324H23.8711L23.8838 7.16162H26.2134L26.5752 7.59961C27.083 7.61654 27.4998 7.72868 27.8257 7.93604C28.1558 8.14339 28.4012 8.41211 28.562 8.74219C28.7228 9.07227 28.8032 9.42773 28.8032 9.80859C28.8032 10.3968 28.6742 10.8898 28.416 11.2876C28.1621 11.6854 27.7961 11.988 27.3179 12.1953C26.8397 12.3984 26.2642 12.5 25.5913 12.5ZM33.2847 12.627C32.7769 12.627 32.3177 12.5444 31.9072 12.3794C31.501 12.2101 31.154 11.9753 30.8662 11.6748C30.5827 11.3743 30.3647 11.021 30.2124 10.6147C30.0601 10.2085 29.9839 9.77051 29.9839 9.30078V9.04688C29.9839 8.50944 30.0622 8.02279 30.2188 7.58691C30.3753 7.15104 30.5933 6.77865 30.8726 6.46973C31.1519 6.15658 31.4819 5.91748 31.8628 5.75244C32.2437 5.5874 32.6562 5.50488 33.1006 5.50488C33.5915 5.50488 34.021 5.5874 34.3892 5.75244C34.7573 5.91748 35.062 6.15023 35.3032 6.45068C35.5487 6.74691 35.7306 7.10026 35.8491 7.51074C35.9718 7.92122 36.0332 8.37402 36.0332 8.86914V9.52295H30.7266V8.4248H34.5225V8.3042C34.514 8.02913 34.459 7.771 34.3574 7.52979C34.2601 7.28857 34.1099 7.09391 33.9067 6.9458C33.7036 6.79769 33.4328 6.72363 33.0942 6.72363C32.8403 6.72363 32.6139 6.77865 32.415 6.88867C32.2204 6.99447 32.0575 7.14893 31.9263 7.35205C31.7951 7.55518 31.6935 7.80062 31.6216 8.08838C31.5539 8.37191 31.52 8.69141 31.52 9.04688V9.30078C31.52 9.60124 31.5602 9.88053 31.6406 10.1387C31.7253 10.3926 31.848 10.6147 32.0088 10.8052C32.1696 10.9956 32.3643 11.1458 32.5928 11.2559C32.8213 11.3617 33.0815 11.4146 33.3735 11.4146C33.7417 11.4146 34.0697 11.3405 34.3574 11.1924C34.6452 11.0443 34.8949 10.8348 35.1064 10.564L35.9126 11.3447C35.7645 11.5605 35.5719 11.7679 35.335 11.9668C35.098 12.1615 34.8081 12.3201 34.4653 12.4429C34.1268 12.5656 33.7332 12.627 33.2847 12.627ZM41.0796 10.6401C41.0796 10.4878 41.0415 10.3503 40.9653 10.2275C40.8892 10.1006 40.7432 9.98633 40.5273 9.88477C40.3158 9.7832 40.0026 9.6901 39.5879 9.60547C39.224 9.52507 38.8896 9.42985 38.585 9.31982C38.2845 9.20557 38.0264 9.06803 37.8105 8.90723C37.5947 8.74642 37.4276 8.55599 37.3091 8.33594C37.1906 8.11589 37.1313 7.86198 37.1313 7.57422C37.1313 7.29492 37.1927 7.03044 37.3154 6.78076C37.4382 6.53109 37.6138 6.31104 37.8423 6.12061C38.0708 5.93018 38.348 5.77995 38.6738 5.66992C39.0039 5.5599 39.3721 5.50488 39.7783 5.50488C40.3538 5.50488 40.8468 5.60221 41.2573 5.79688C41.672 5.9873 41.9894 6.24756 42.2095 6.57764C42.4295 6.90348 42.5396 7.27165 42.5396 7.68213H41.0098C41.0098 7.50016 40.9632 7.33089 40.8701 7.17432C40.7812 7.01351 40.6458 6.88444 40.4639 6.78711C40.2819 6.68555 40.0534 6.63477 39.7783 6.63477C39.516 6.63477 39.298 6.67708 39.1245 6.76172C38.9552 6.84212 38.8283 6.94792 38.7437 7.0791C38.6632 7.21029 38.623 7.35417 38.623 7.51074C38.623 7.625 38.6442 7.72868 38.6865 7.82178C38.7331 7.91064 38.8092 7.99316 38.915 8.06934C39.0208 8.14128 39.1647 8.20898 39.3467 8.27246C39.5329 8.33594 39.7656 8.3973 40.0449 8.45654C40.5697 8.56657 41.0203 8.70833 41.397 8.88184C41.7778 9.05111 42.0698 9.27116 42.2729 9.54199C42.4761 9.80859 42.5776 10.1471 42.5776 10.5576C42.5776 10.8623 42.512 11.1416 42.3809 11.3955C42.2539 11.6452 42.0677 11.8631 41.8223 12.0493C41.5768 12.2313 41.2827 12.373 40.9399 12.4746C40.6014 12.5762 40.2205 12.627 39.7974 12.627C39.1753 12.627 38.6484 12.5169 38.2168 12.2969C37.7852 12.0726 37.4572 11.7869 37.2329 11.4399C37.0129 11.0887 36.9028 10.7248 36.9028 10.3481H38.3818C38.3988 10.6317 38.4771 10.8581 38.6167 11.0273C38.7606 11.1924 38.9383 11.313 39.1499 11.3892C39.3657 11.4611 39.5879 11.4971 39.8164 11.4971C40.0915 11.4971 40.3221 11.4611 40.5083 11.3892C40.6945 11.313 40.8363 11.2114 40.9336 11.0845C41.0309 10.9533 41.0796 10.8052 41.0796 10.6401ZM47.0654 5.63184V6.74902H43.1934V5.63184H47.0654ZM44.3105 3.94971H45.8403V10.6021C45.8403 10.8136 45.87 10.9766 45.9292 11.0908C45.9927 11.2008 46.0794 11.2749 46.1895 11.313C46.2995 11.3511 46.4285 11.3701 46.5767 11.3701C46.6825 11.3701 46.784 11.3638 46.8813 11.3511C46.9787 11.3384 47.057 11.3257 47.1162 11.313L47.1226 12.481C46.9956 12.519 46.8475 12.5529 46.6782 12.5825C46.5132 12.6121 46.3228 12.627 46.1069 12.627C45.7557 12.627 45.4447 12.5656 45.1738 12.4429C44.903 12.3159 44.6914 12.1107 44.5391 11.8271C44.3867 11.5436 44.3105 11.167 44.3105 10.6973V3.94971ZM59.0054 7.625V8.13281C59.0054 8.83105 58.9144 9.45736 58.7324 10.0117C58.5505 10.5661 58.2902 11.0379 57.9517 11.4272C57.6174 11.8166 57.2153 12.1149 56.7456 12.3223C56.2759 12.5254 55.7554 12.627 55.1841 12.627C54.617 12.627 54.0986 12.5254 53.6289 12.3223C53.1634 12.1149 52.7593 11.8166 52.4165 11.4272C52.0737 11.0379 51.8071 10.5661 51.6167 10.0117C51.4305 9.45736 51.3374 8.83105 51.3374 8.13281V7.625C51.3374 6.92676 51.4305 6.30257 51.6167 5.75244C51.8029 5.19808 52.0653 4.72624 52.4038 4.33691C52.7466 3.94336 53.1507 3.64502 53.6162 3.44189C54.0859 3.23454 54.6043 3.13086 55.1714 3.13086C55.7427 3.13086 56.2632 3.23454 56.7329 3.44189C57.2026 3.64502 57.6068 3.94336 57.9453 4.33691C58.2839 4.72624 58.5441 5.19808 58.7261 5.75244C58.9123 6.30257 59.0054 6.92676 59.0054 7.625ZM57.4121 8.13281V7.6123C57.4121 7.09603 57.3613 6.64111 57.2598 6.24756C57.1624 5.84977 57.0164 5.51758 56.8218 5.25098C56.6313 4.98014 56.3965 4.77702 56.1172 4.6416C55.8379 4.50195 55.5226 4.43213 55.1714 4.43213C54.8201 4.43213 54.507 4.50195 54.2319 4.6416C53.9569 4.77702 53.722 4.98014 53.5273 5.25098C53.3369 5.51758 53.1909 5.84977 53.0894 6.24756C52.9878 6.64111 52.937 7.09603 52.937 7.6123V8.13281C52.937 8.64909 52.9878 9.10612 53.0894 9.50391C53.1909 9.90169 53.339 10.2381 53.5337 10.5132C53.7326 10.784 53.9696 10.9893 54.2446 11.1289C54.5197 11.2643 54.8328 11.332 55.1841 11.332C55.5396 11.332 55.8548 11.2643 56.1299 11.1289C56.4049 10.9893 56.6377 10.784 56.8281 10.5132C57.0186 10.2381 57.1624 9.90169 57.2598 9.50391C57.3613 9.10612 57.4121 8.64909 57.4121 8.13281ZM64.6357 11.0781V2.75H66.1719V12.5H64.7817L64.6357 11.0781ZM60.167 9.14209V9.00879C60.167 8.48828 60.2284 8.01432 60.3511 7.58691C60.4738 7.15527 60.6515 6.78499 60.8843 6.47607C61.117 6.16292 61.4006 5.92383 61.7349 5.75879C62.0692 5.58952 62.4458 5.50488 62.8647 5.50488C63.2795 5.50488 63.6434 5.58529 63.9565 5.74609C64.2697 5.9069 64.5363 6.13753 64.7563 6.43799C64.9764 6.73421 65.152 7.08968 65.2832 7.50439C65.4144 7.91488 65.5075 8.37191 65.5625 8.87549V9.30078C65.5075 9.79167 65.4144 10.2402 65.2832 10.6465C65.152 11.0527 64.9764 11.404 64.7563 11.7002C64.5363 11.9964 64.2676 12.2249 63.9502 12.3857C63.637 12.5465 63.271 12.627 62.8521 12.627C62.4373 12.627 62.0628 12.5402 61.7285 12.3667C61.3984 12.1932 61.117 11.9499 60.8843 11.6367C60.6515 11.3236 60.4738 10.9554 60.3511 10.5322C60.2284 10.1048 60.167 9.64144 60.167 9.14209ZM61.6968 9.00879V9.14209C61.6968 9.45524 61.7243 9.74723 61.7793 10.0181C61.8385 10.2889 61.9295 10.528 62.0522 10.7354C62.175 10.9385 62.3337 11.0993 62.5283 11.2178C62.7272 11.332 62.9642 11.3892 63.2393 11.3892C63.5863 11.3892 63.8719 11.313 64.0962 11.1606C64.3205 11.0083 64.4961 10.8031 64.623 10.5449C64.7542 10.2826 64.8431 9.99056 64.8896 9.66895V8.52002C64.8643 8.27035 64.8114 8.0376 64.731 7.82178C64.6548 7.60596 64.5511 7.41764 64.4199 7.25684C64.2887 7.0918 64.1258 6.96484 63.9312 6.87598C63.7407 6.78288 63.5143 6.73633 63.252 6.73633C62.9727 6.73633 62.7357 6.79557 62.541 6.91406C62.3464 7.03255 62.1855 7.19548 62.0586 7.40283C61.9359 7.61019 61.8449 7.8514 61.7856 8.12646C61.7264 8.40153 61.6968 8.69564 61.6968 9.00879ZM71.9609 11.0781V2.75H73.4971V12.5H72.1069L71.9609 11.0781ZM67.4922 9.14209V9.00879C67.4922 8.48828 67.5535 8.01432 67.6763 7.58691C67.799 7.15527 67.9767 6.78499 68.2095 6.47607C68.4422 6.16292 68.7257 5.92383 69.0601 5.75879C69.3944 5.58952 69.771 5.50488 70.1899 5.50488C70.6047 5.50488 70.9686 5.58529 71.2817 5.74609C71.5949 5.9069 71.8615 6.13753 72.0815 6.43799C72.3016 6.73421 72.4772 7.08968 72.6084 7.50439C72.7396 7.91488 72.8327 8.37191 72.8877 8.87549V9.30078C72.8327 9.79167 72.7396 10.2402 72.6084 10.6465C72.4772 11.0527 72.3016 11.404 72.0815 11.7002C71.8615 11.9964 71.5928 12.2249 71.2754 12.3857C70.9622 12.5465 70.5962 12.627 70.1772 12.627C69.7625 12.627 69.388 12.5402 69.0537 12.3667C68.7236 12.1932 68.4422 11.9499 68.2095 11.6367C67.9767 11.3236 67.799 10.9554 67.6763 10.5322C67.5535 10.1048 67.4922 9.64144 67.4922 9.14209ZM69.022 9.00879V9.14209C69.022 9.45524 69.0495 9.74723 69.1045 10.0181C69.1637 10.2889 69.2547 10.528 69.3774 10.7354C69.5002 10.9385 69.6589 11.0993 69.8535 11.2178C70.0524 11.332 70.2894 11.3892 70.5645 11.3892C70.9115 11.3892 71.1971 11.313 71.4214 11.1606C71.6457 11.0083 71.8213 10.8031 71.9482 10.5449C72.0794 10.2826 72.1683 9.99056 72.2148 9.66895V8.52002C72.1895 8.27035 72.1366 8.0376 72.0562 7.82178C71.98 7.60596 71.8763 7.41764 71.7451 7.25684C71.6139 7.0918 71.451 6.96484 71.2563 6.87598C71.0659 6.78288 70.8395 6.73633 70.5771 6.73633C70.2979 6.73633 70.0609 6.79557 69.8662 6.91406C69.6715 7.03255 69.5107 7.19548 69.3838 7.40283C69.2611 7.61019 69.1701 7.8514 69.1108 8.12646C69.0516 8.40153 69.022 8.69564 69.022 9.00879ZM78.9497 10.6401C78.9497 10.4878 78.9116 10.3503 78.8354 10.2275C78.7593 10.1006 78.6133 9.98633 78.3975 9.88477C78.1859 9.7832 77.8727 9.6901 77.458 9.60547C77.0941 9.52507 76.7598 9.42985 76.4551 9.31982C76.1546 9.20557 75.8965 9.06803 75.6807 8.90723C75.4648 8.74642 75.2977 8.55599 75.1792 8.33594C75.0607 8.11589 75.0015 7.86198 75.0015 7.57422C75.0015 7.29492 75.0628 7.03044 75.1855 6.78076C75.3083 6.53109 75.4839 6.31104 75.7124 6.12061C75.9409 5.93018 76.2181 5.77995 76.5439 5.66992C76.874 5.5599 77.2422 5.50488 77.6484 5.50488C78.224 5.50488 78.717 5.60221 79.1274 5.79688C79.5422 5.9873 79.8595 6.24756 80.0796 6.57764C80.2996 6.90348 80.4097 7.27165 80.4097 7.68213H78.8799C78.8799 7.50016 78.8333 7.33089 78.7402 7.17432C78.6514 7.01351 78.516 6.88444 78.334 6.78711C78.152 6.68555 77.9235 6.63477 77.6484 6.63477C77.3861 6.63477 77.1681 6.67708 76.9946 6.76172C76.8254 6.84212 76.6984 6.94792 76.6138 7.0791C76.5334 7.21029 76.4932 7.35417 76.4932 7.51074C76.4932 7.625 76.5143 7.72868 76.5566 7.82178C76.6032 7.91064 76.6794 7.99316 76.7852 8.06934C76.891 8.14128 77.0348 8.20898 77.2168 8.27246C77.403 8.33594 77.6357 8.3973 77.915 8.45654C78.4398 8.56657 78.8905 8.70833 79.2671 8.88184C79.6479 9.05111 79.9399 9.27116 80.1431 9.54199C80.3462 9.80859 80.4478 10.1471 80.4478 10.5576C80.4478 10.8623 80.3822 11.1416 80.251 11.3955C80.124 11.6452 79.9378 11.8631 79.6924 12.0493C79.4469 12.2313 79.1528 12.373 78.8101 12.4746C78.4715 12.5762 78.0907 12.627 77.6675 12.627C77.0454 12.627 76.5186 12.5169 76.0869 12.2969C75.6553 12.0726 75.3273 11.7869 75.103 11.4399C74.883 11.0887 74.7729 10.7248 74.7729 10.3481H76.252C76.2689 10.6317 76.3472 10.8581 76.4868 11.0273C76.6307 11.1924 76.8084 11.313 77.02 11.3892C77.2358 11.4611 77.458 11.4971 77.6865 11.4971C77.9616 11.4971 78.1922 11.4611 78.3784 11.3892C78.5646 11.313 78.7064 11.2114 78.8037 11.0845C78.901 10.9533 78.9497 10.8052 78.9497 10.6401Z" fill="#F4F5F0"/>
</svg>
